<svg width="40" height="32" viewBox="0 0 40 32" fill="none" xmlns="http://www.w3.org/2000/svg">
<path d="M20.7969 16.6204H39.9977L37.8071 23.5661H20.7969V16.6204Z" fill="#1D72E9"/>
<path d="M10.0898 16.6204C11.0596 18.9563 14.5588 23.6157 20.798 23.5657V16.6204H10.0898Z" fill="#1D72E9"/>
<path d="M18.832 32H3.44675L5.20208 25.0543H18.832V32Z" fill="#1D72E9"/>
<path d="M29.541 25.0542C28.5713 27.3902 25.0721 32.0496 18.8329 31.9995V25.0542H29.541Z" fill="#1D72E9"/>
<path d="M18.707 15.2556H-0.00147438L2.13301 8.3099H18.707V15.2556Z" fill="#1D72E9"/>
<path d="M29.416 15.2556C28.4463 12.9197 24.9471 8.26025 18.7079 8.3103V15.2556H29.416Z" fill="#1D72E9"/>
<path d="M21.293 0H36.6783L34.9229 6.94571H21.293V0Z" fill="#1D72E9"/>
<path d="M10.5859 6.9458C11.5557 4.60984 15.0549 -0.0495687 21.2941 0.000487328V6.9458H10.5859Z" fill="#1D72E9"/>
</svg>
