<svg width="144" height="48" viewBox="0 0 144 48" fill="none" xmlns="http://www.w3.org/2000/svg">
<rect width="144" height="48" rx="8" fill="#0D0D0D"/>
<rect x="0.5" y="0.5" width="143" height="47" rx="7.5" stroke="white" stroke-opacity="0.25"/>
<path d="M97.832 23.0411V25.7903H96.1087V27.5932H97.832V33.7192C97.832 35.811 98.7783 36.6477 101.159 36.6477C101.577 36.6477 101.976 36.5979 102.324 36.5381V34.7551C102.026 34.785 101.836 34.8049 101.508 34.8049C100.442 34.8049 99.9736 34.3069 99.9736 33.1713V27.5932H102.324V25.7903H99.9736V23.0411H97.832Z" fill="white"/>
<path d="M108.389 36.7971C111.557 36.7971 113.499 34.6754 113.499 31.1592C113.499 27.6629 111.547 25.5313 108.389 25.5313C105.221 25.5313 103.269 27.6629 103.269 31.1592C103.269 34.6754 105.211 36.7971 108.389 36.7971ZM108.389 34.8946C106.526 34.8946 105.48 33.5299 105.48 31.1592C105.48 28.8084 106.526 27.4338 108.389 27.4338C110.242 27.4338 111.298 28.8084 111.298 31.1592C111.298 33.52 110.242 34.8946 108.389 34.8946Z" fill="white"/>
<path d="M115.161 36.5879H117.302V30.183C117.302 28.659 118.448 27.633 120.072 27.633C120.45 27.633 121.088 27.7028 121.267 27.7625V25.6508C121.038 25.5911 120.629 25.5612 120.311 25.5612C118.896 25.5612 117.691 26.3381 117.382 27.4039H117.223V25.7405H115.161V36.5879Z" fill="white"/>
<path d="M126.584 27.3541C128.168 27.3541 129.204 28.4598 129.254 30.1631H123.775C123.895 28.4698 125.001 27.3541 126.584 27.3541ZM129.244 33.6594C128.846 34.5061 127.959 34.9743 126.664 34.9743C124.951 34.9743 123.845 33.769 123.775 31.8664V31.7469H131.435V30.9998C131.435 27.5932 129.613 25.5313 126.594 25.5313C123.536 25.5313 121.594 27.7327 121.594 31.1991C121.594 34.6655 123.497 36.7971 126.604 36.7971C129.085 36.7971 130.818 35.6018 131.306 33.6594H129.244Z" fill="white"/>
<path d="M83.7877 32.5821C83.9529 35.2458 86.1726 36.9493 89.4763 36.9493C93.0072 36.9493 95.2166 35.1632 95.2166 32.3137C95.2166 30.0733 93.957 28.8344 90.9011 28.1221L89.2595 27.7194C87.3186 27.2652 86.5339 26.656 86.5339 25.5926C86.5339 24.2505 87.7522 23.3729 89.5796 23.3729C91.314 23.3729 92.5117 24.2298 92.7285 25.603H94.9791C94.8449 23.0942 92.6355 21.3287 89.6105 21.3287C86.3584 21.3287 84.1903 23.0942 84.1903 25.7475C84.1903 27.9362 85.4189 29.2371 88.1135 29.8669L90.0338 30.3315C92.0058 30.796 92.873 31.4774 92.873 32.6131C92.873 33.9346 91.5102 34.8948 89.6518 34.8948C87.6593 34.8948 86.2758 33.9966 86.0797 32.5821H83.7877Z" fill="white"/>
<path d="M61.6029 25.5612C60.1287 25.5612 58.8537 26.2983 58.1962 27.5334H58.0369V25.7405H55.975V40.1938H58.1166V34.9444H58.2859C58.8537 36.0899 60.0789 36.7672 61.6228 36.7672C64.3621 36.7672 66.1052 34.6057 66.1052 31.1592C66.1052 27.7127 64.3621 25.5612 61.6029 25.5612ZM60.9953 34.8448C59.2023 34.8448 58.0767 33.4303 58.0767 31.1692C58.0767 28.8981 59.2023 27.4836 61.0052 27.4836C62.8181 27.4836 63.9039 28.8682 63.9039 31.1592C63.9039 33.4602 62.8181 34.8448 60.9953 34.8448Z" fill="white"/>
<path d="M73.599 25.5612C72.1248 25.5612 70.8498 26.2983 70.1924 27.5334H70.033V25.7405H67.9711V40.1938H70.1127V34.9444H70.2821C70.8498 36.0899 72.075 36.7672 73.619 36.7672C76.3582 36.7672 78.1014 34.6057 78.1014 31.1592C78.1014 27.7127 76.3582 25.5612 73.599 25.5612ZM72.9914 34.8448C71.1985 34.8448 70.0729 33.4303 70.0729 31.1692C70.0729 28.8981 71.1985 27.4836 73.0014 27.4836C74.8143 27.4836 75.9 28.8682 75.9 31.1592C75.9 33.4602 74.8143 34.8448 72.9914 34.8448Z" fill="white"/>
<path d="M52.1326 36.5879H54.5897L49.2108 21.6901H46.7227L41.3438 36.5879H43.7183L45.0914 32.6338H50.7698L52.1326 36.5879ZM47.848 24.395H48.0235L50.1813 30.6928H45.6799L47.848 24.395Z" fill="white"/>
<path d="M42.7812 10.4531V17.6399H45.3761C47.5177 17.6399 48.7578 16.3201 48.7578 14.0241C48.7578 11.763 47.5077 10.4531 45.3761 10.4531H42.7812ZM43.8969 11.4691H45.2516C46.7407 11.4691 47.6223 12.4154 47.6223 14.039C47.6223 15.6876 46.7557 16.6239 45.2516 16.6239H43.8969V11.4691Z" fill="white"/>
<path d="M52.5559 17.7445C54.1397 17.7445 55.1109 16.6837 55.1109 14.9256C55.1109 13.1774 54.1347 12.1116 52.5559 12.1116C50.9721 12.1116 49.996 13.1774 49.996 14.9256C49.996 16.6837 50.9671 17.7445 52.5559 17.7445ZM52.5559 16.7932C51.6246 16.7932 51.1016 16.1109 51.1016 14.9256C51.1016 13.7502 51.6246 13.0629 52.5559 13.0629C53.4823 13.0629 54.0102 13.7502 54.0102 14.9256C54.0102 16.1059 53.4823 16.7932 52.5559 16.7932Z" fill="white"/>
<path d="M63.3815 12.2162H62.3107L61.3445 16.355H61.2598L60.1442 12.2162H59.1182L58.0026 16.355H57.9229L56.9517 12.2162H55.8659L57.3601 17.6399H58.4608L59.5764 13.6456H59.6611L60.7817 17.6399H61.8923L63.3815 12.2162Z" fill="white"/>
<path d="M64.6146 17.6399H65.6854V14.4674C65.6854 13.6207 66.1885 13.0927 66.9803 13.0927C67.7722 13.0927 68.1508 13.526 68.1508 14.3976V17.6399H69.2216V14.1287C69.2216 12.8387 68.5542 12.1116 67.3439 12.1116C66.5271 12.1116 65.9892 12.4752 65.7253 13.0778H65.6456V12.2162H64.6146V17.6399Z" fill="white"/>
<path d="M70.9079 17.6399H71.9787V10.0995H70.9079V17.6399Z" fill="white"/>
<path d="M76.006 17.7445C77.5897 17.7445 78.5609 16.6837 78.5609 14.9256C78.5609 13.1774 77.5848 12.1116 76.006 12.1116C74.4222 12.1116 73.446 13.1774 73.446 14.9256C73.446 16.6837 74.4172 17.7445 76.006 17.7445ZM76.006 16.7932C75.0746 16.7932 74.5517 16.1109 74.5517 14.9256C74.5517 13.7502 75.0746 13.0629 76.006 13.0629C76.9323 13.0629 77.4603 13.7502 77.4603 14.9256C77.4603 16.1059 76.9323 16.7932 76.006 16.7932Z" fill="white"/>
<path d="M81.7514 16.8281C81.1687 16.8281 80.7454 16.5442 80.7454 16.0561C80.7454 15.578 81.084 15.324 81.8311 15.2742L83.1559 15.1895V15.6427C83.1559 16.3151 82.5583 16.8281 81.7514 16.8281ZM81.4775 17.7296C82.1897 17.7296 82.7824 17.4208 83.1061 16.8779H83.1908V17.6399H84.2217V13.9344C84.2217 12.7889 83.4547 12.1116 82.0951 12.1116C80.8649 12.1116 79.9883 12.7093 79.8788 13.6406H80.9147C81.0342 13.2571 81.4476 13.038 82.0453 13.038C82.7774 13.038 83.1559 13.3617 83.1559 13.9344V14.4026L81.6867 14.4873C80.3967 14.567 79.6696 15.1298 79.6696 16.1059C79.6696 17.097 80.4316 17.7296 81.4775 17.7296Z" fill="white"/>
<path d="M87.8555 17.7296C88.6026 17.7296 89.2351 17.376 89.5588 16.7833H89.6435V17.6399H90.6694V10.0995H89.5986V13.0778H89.519C89.2251 12.4802 88.5976 12.1265 87.8555 12.1265C86.4859 12.1265 85.6043 13.2123 85.6043 14.9256C85.6043 16.6438 86.4759 17.7296 87.8555 17.7296ZM88.1593 13.0878C89.0558 13.0878 89.6186 13.8 89.6186 14.9305C89.6186 16.0661 89.0608 16.7683 88.1593 16.7683C87.2528 16.7683 86.71 16.076 86.71 14.9256C86.71 13.785 87.2578 13.0878 88.1593 13.0878Z" fill="white"/>
<path d="M97.6132 17.7445C99.197 17.7445 100.168 16.6837 100.168 14.9256C100.168 13.1774 99.192 12.1116 97.6132 12.1116C96.0294 12.1116 95.0533 13.1774 95.0533 14.9256C95.0533 16.6837 96.0244 17.7445 97.6132 17.7445ZM97.6132 16.7932C96.6819 16.7932 96.1589 16.1109 96.1589 14.9256C96.1589 13.7502 96.6819 13.0629 97.6132 13.0629C98.5396 13.0629 99.0675 13.7502 99.0675 14.9256C99.0675 16.1059 98.5396 16.7932 97.6132 16.7932Z" fill="white"/>
<path d="M101.586 17.6399H102.656V14.4674C102.656 13.6207 103.159 13.0927 103.951 13.0927C104.743 13.0927 105.122 13.526 105.122 14.3976V17.6399H106.193V14.1287C106.193 12.8387 105.525 12.1116 104.315 12.1116C103.498 12.1116 102.96 12.4752 102.696 13.0778H102.617V12.2162H101.586V17.6399Z" fill="white"/>
<path d="M111.124 10.8665V12.2411H110.263V13.1426H111.124V16.2055C111.124 17.2514 111.597 17.6698 112.788 17.6698C112.997 17.6698 113.196 17.6449 113.37 17.615V16.7235C113.221 16.7385 113.126 16.7484 112.962 16.7484C112.429 16.7484 112.195 16.4994 112.195 15.9316V13.1426H113.37V12.2411H112.195V10.8665H111.124Z" fill="white"/>
<path d="M114.808 17.6399H115.879V14.4723C115.879 13.6506 116.367 13.0977 117.243 13.0977C118 13.0977 118.404 13.536 118.404 14.4026V17.6399H119.474V14.1386C119.474 12.8487 118.762 12.1166 117.607 12.1166C116.79 12.1166 116.217 12.4802 115.953 13.0878H115.869V10.0995H114.808V17.6399Z" fill="white"/>
<path d="M123.337 13.023C124.129 13.023 124.647 13.5759 124.672 14.4275H121.933C121.993 13.5808 122.545 13.023 123.337 13.023ZM124.667 16.1757C124.468 16.599 124.025 16.8331 123.377 16.8331C122.521 16.8331 121.968 16.2304 121.933 15.2792V15.2194H125.763V14.8459C125.763 13.1426 124.851 12.1116 123.342 12.1116C121.813 12.1116 120.842 13.2123 120.842 14.9455C120.842 16.6787 121.793 17.7445 123.347 17.7445C124.587 17.7445 125.454 17.1469 125.698 16.1757H124.667Z" fill="white"/>
<path d="M29.7236 24.361C29.7496 22.3438 30.8329 20.4351 32.5514 19.3786C31.4673 17.8302 29.6513 16.8485 27.7621 16.7893C25.747 16.5778 23.7934 17.9951 22.7666 17.9951C21.7198 17.9951 20.1388 16.8103 18.4364 16.8454C16.2173 16.9171 14.1485 18.1787 13.0689 20.1188C10.7481 24.1369 12.4792 30.0422 14.7023 33.2901C15.8146 34.8805 17.1145 36.6571 18.8155 36.5941C20.4799 36.525 21.1016 35.5327 23.1107 35.5327C25.1013 35.5327 25.6845 36.5941 27.4199 36.554C29.206 36.525 30.3313 34.9565 31.4046 33.351C32.2037 32.2178 32.8187 30.9653 33.2267 29.64C31.1277 28.7523 29.726 26.64 29.7236 24.361Z" fill="white"/>
<path d="M26.4456 14.6533C27.4194 13.4843 27.8992 11.9817 27.783 10.4646C26.2952 10.6209 24.9209 11.3319 23.9339 12.4561C22.9688 13.5545 22.4665 15.0307 22.5615 16.4898C24.0498 16.5051 25.5129 15.8133 26.4456 14.6533Z" fill="white"/>
</svg>
