<svg width="160" height="48" viewBox="0 0 160 48" fill="none" xmlns="http://www.w3.org/2000/svg">
<g clip-path="url(#clip0_3123_1344)">
<path d="M148.714 0H9.9968C9.6352 0 9.2736 0 8.9088 0C8.1132 0.0115686 7.31955 0.0821625 6.5344 0.2112C5.75433 0.343317 4.99897 0.593664 4.2944 0.9536C3.5857 1.31592 2.9379 1.78666 2.3744 2.3488C1.811 2.91123 1.34012 3.55924 0.9792 4.2688C0.614894 4.98339 0.362357 5.74963 0.2304 6.5408C0.0977768 7.32442 0.0271579 8.11728 0.0192 8.912C0 9.28 0 9.6384 0 10.0032V38C0 38.368 0 38.7264 0.0192 39.0944C0.0274355 39.8891 0.0980525 40.6819 0.2304 41.4656C0.361215 42.2456 0.610494 43.001 0.9696 43.7056C1.6955 45.1388 2.85584 46.3058 4.2848 47.04C4.98968 47.4006 5.7448 47.653 6.5248 47.7888C7.31003 47.9168 8.10368 47.9863 8.8992 47.9968C9.264 47.9968 9.6256 47.9968 9.9872 47.9968H149.987C150.349 47.9968 150.717 47.9968 151.078 47.9968C151.872 47.987 152.663 47.9175 153.446 47.7888C154.233 47.6525 154.996 47.4001 155.709 47.04C156.42 46.6815 157.068 46.2103 157.629 45.6448C158.195 45.0833 158.668 44.4352 159.03 43.7248C159.386 43.0193 159.633 42.2641 159.763 41.4848C159.896 40.701 159.969 39.9084 159.984 39.1136C159.984 38.7456 159.984 38.3872 159.984 38.0192C159.984 37.5904 159.984 37.1616 159.984 36.7392V11.296C159.984 10.8608 159.984 10.432 159.984 10.016C159.984 9.6512 159.984 9.2864 159.984 8.9248C159.97 8.13 159.896 7.33739 159.763 6.5536C159.632 5.7746 159.385 5.0196 159.03 4.3136C158.305 2.87622 157.147 1.70309 155.718 0.96C155.005 0.603756 154.243 0.35673 153.456 0.2272C152.673 0.0974609 151.882 0.0268613 151.088 0.016C150.726 0.016 150.358 0.016 149.997 0.016L148.714 0Z" fill="#4A4A4A"/>
<path d="M10.0035 46.9633C9.64191 46.9633 9.28991 46.9633 8.93151 46.9633C8.18967 46.9537 7.44954 46.8895 6.71711 46.7713C6.03536 46.6554 5.37439 46.4398 4.75551 46.1313C3.52594 45.5011 2.52445 44.5018 1.89151 43.2737C1.58002 42.6549 1.36423 41.9924 1.25151 41.3089C1.12915 40.5748 1.06389 39.8323 1.05631 39.0881C1.05631 38.8385 1.03711 38.0065 1.03711 38.0065V10.0033C1.03711 10.0033 1.03711 9.18406 1.05631 8.94406C1.06184 8.19884 1.12604 7.4552 1.24831 6.72006C1.35957 6.03413 1.57542 5.36933 1.88831 4.74886C2.19935 4.13831 2.6067 3.58185 3.09471 3.10086C3.5821 2.61295 4.1424 2.2038 4.75551 1.88806C5.37302 1.57892 6.03302 1.36324 6.71391 1.24806C7.44822 1.1273 8.19059 1.06205 8.93471 1.05286H10.0035H149.991H151.072C151.81 1.05917 152.546 1.12337 153.274 1.24486C153.962 1.35767 154.628 1.57342 155.252 1.88486C156.484 2.52056 157.485 3.52822 158.112 4.76486C158.423 5.38061 158.639 6.03979 158.752 6.72006C158.875 7.46072 158.944 8.20939 158.957 8.96006C158.957 9.29606 158.957 9.65766 158.957 10.0161C158.957 10.4609 158.957 10.8833 158.957 11.2961V36.7041C158.957 37.1361 158.957 37.5553 158.957 37.9841C158.957 38.4129 158.957 38.7233 158.957 39.0881C158.946 39.8238 158.878 40.5577 158.756 41.2833C158.646 41.9717 158.43 42.6389 158.116 43.2609C157.48 44.4844 156.48 45.4806 155.255 46.1121C154.633 46.4239 153.967 46.6397 153.28 46.7521C152.548 46.871 151.808 46.9351 151.066 46.9441C150.72 46.9441 150.356 46.9441 150.004 46.9441H10.0035V46.9633Z" fill="black"/>
<path d="M59.3887 32.4032H53.7599L52.3935 36.16H49.9199L55.4239 22.1248H57.7599L63.3887 36.16H60.7999L59.3887 32.4032ZM54.4767 30.4832H58.6687L57.1679 26.464C56.9631 25.9104 56.7583 25.296 56.5599 24.624C56.3775 25.2192 56.1791 25.824 55.9679 26.4448L54.4767 30.4832Z" fill="white"/>
<path d="M64.3834 28.2657C64.3834 27.4913 64.3578 26.6379 64.3066 25.7057H66.5466C66.6308 26.1445 66.6885 26.5879 66.7194 27.0337C67.1114 26.5639 67.6003 26.1846 68.1527 25.9217C68.705 25.6588 69.3077 25.5185 69.9194 25.5105C70.6367 25.4991 71.341 25.7019 71.9424 26.093C72.5437 26.484 73.0148 27.0455 73.2954 27.7057C73.6891 28.6132 73.876 29.597 73.8426 30.5857C73.867 31.6637 73.6482 32.7333 73.2026 33.7153C72.8299 34.5302 72.2212 35.2146 71.4554 35.6801C70.6675 36.1354 69.7701 36.3666 68.8602 36.3489C68.1443 36.3484 67.4335 36.2273 66.7578 35.9905V40.3201L64.3642 40.5249L64.3834 28.2657ZM70.6746 33.6001C71.161 32.9601 71.4074 32.0001 71.4074 30.7201C71.4074 29.5531 71.2048 28.6998 70.7994 28.1601C70.6163 27.9092 70.375 27.7066 70.0964 27.5694C69.8177 27.4323 69.5099 27.3649 69.1994 27.3729C68.7523 27.3669 68.3112 27.4772 67.9194 27.6929C67.5033 27.9286 67.1247 28.2252 66.7962 28.5729V34.1729C67.0614 34.2979 67.3408 34.3903 67.6282 34.4481C67.9374 34.515 68.2527 34.5493 68.569 34.5505C68.9708 34.5745 69.3723 34.5006 69.7391 34.335C70.1059 34.1695 70.427 33.9172 70.6746 33.6001Z" fill="white"/>
<path d="M75.2995 28.2657C75.2995 27.4913 75.2739 26.6379 75.2227 25.7057H77.4627C77.5495 26.1441 77.6082 26.5877 77.6386 27.0337C78.5709 26.0182 79.6376 25.5105 80.8386 25.5105C81.5559 25.4991 82.2602 25.7019 82.8616 26.093C83.4629 26.484 83.934 27.0455 84.2146 27.7057C84.6083 28.6132 84.7952 29.597 84.7618 30.5857C84.7912 31.6625 84.5779 32.7321 84.1378 33.7153C83.7642 34.5306 83.1544 35.2151 82.3874 35.6801C81.5997 36.1358 80.7022 36.3671 79.7922 36.3489C79.0763 36.3484 78.3655 36.2273 77.6898 35.9905V40.3201L75.2963 40.5249L75.2995 28.2657ZM81.6002 33.6001C82.0866 32.9451 82.3298 31.9851 82.3298 30.7201C82.3298 29.5531 82.1282 28.6998 81.725 28.1601C81.5419 27.9092 81.3006 27.7066 81.022 27.5694C80.7433 27.4323 80.4355 27.3649 80.125 27.3729C79.6779 27.3675 79.237 27.4777 78.845 27.6929C78.4289 27.9286 78.0503 28.2252 77.7219 28.5729V34.1729C77.9874 34.297 78.2667 34.3893 78.5538 34.4481C78.863 34.515 79.1783 34.5493 79.4946 34.5505C79.8963 34.574 80.2976 34.4998 80.6644 34.3343C81.0311 34.1687 81.3522 33.9168 81.6002 33.6001Z" fill="white"/>
<path d="M89.1609 35.4976C88.1383 34.9368 87.3077 34.0817 86.7769 33.0432C86.1967 31.8698 85.9111 30.5726 85.9449 29.264C85.9034 27.8639 86.2347 26.478 86.9049 25.248C87.51 24.1807 88.419 23.3174 89.5161 22.768C90.6691 22.2046 91.9386 21.9207 93.2217 21.9392C93.9998 21.9358 94.7755 22.0261 95.5321 22.208C96.2397 22.3746 96.9266 22.6193 97.5801 22.9376L96.9593 24.7776C95.8273 24.2066 94.582 23.8961 93.3145 23.8688C92.4198 23.8539 91.5369 24.0746 90.7545 24.5088C90.0121 24.935 89.4154 25.5751 89.0425 26.3456C88.6135 27.2595 88.4053 28.2613 88.4345 29.2704C88.4185 30.1796 88.5771 31.0834 88.9017 31.9328C89.1963 32.6847 89.7146 33.328 90.3865 33.776C91.1519 34.255 92.0443 34.4914 92.9465 34.4544C93.414 34.4533 93.8807 34.4137 94.3417 34.336C94.7878 34.2651 95.2261 34.1515 95.6505 33.9968V31.1424H92.4057V29.2832H97.9769V35.2C97.1686 35.5767 96.3221 35.8653 95.4521 36.0608C94.5894 36.2595 93.707 36.3605 92.8217 36.3616C91.5475 36.3922 90.2869 36.0947 89.1609 35.4976Z" fill="white"/>
<path d="M106.48 36.16C106.39 35.703 106.334 35.2398 106.314 34.7744C105.914 35.2395 105.426 35.6203 104.877 35.8944C104.258 36.2081 103.571 36.3663 102.877 36.3552C102.309 36.3624 101.747 36.241 101.232 36C100.743 35.7705 100.334 35.3993 100.058 34.9344C99.7521 34.4076 99.6002 33.8056 99.6194 33.1968C99.6015 32.7351 99.6913 32.2755 99.8819 31.8544C100.072 31.4334 100.358 31.0626 100.717 30.7712C101.447 30.1654 102.664 29.8635 104.368 29.8656C105.003 29.8653 105.637 29.9103 106.266 30V29.7952C106.266 28.8736 106.07 28.223 105.677 27.8432C105.208 27.4394 104.599 27.236 103.981 27.2768C103.428 27.2836 102.877 27.3588 102.343 27.5008C101.813 27.6286 101.296 27.8064 100.8 28.032L100.423 26.2912C100.965 26.0596 101.529 25.8807 102.106 25.7568C102.831 25.5928 103.573 25.5112 104.317 25.5136C105.105 25.4921 105.889 25.6326 106.621 25.9264C107.265 26.211 107.789 26.7112 108.103 27.3408C108.495 28.1839 108.679 29.1093 108.637 30.0384V34.1984C108.637 34.6251 108.663 35.28 108.714 36.1632L106.48 36.16ZM105.047 34.24C105.508 34.0257 105.922 33.7223 106.266 33.3472V31.4272C105.735 31.3644 105.201 31.3292 104.666 31.3216C103.678 31.3216 102.994 31.4816 102.615 31.8016C102.429 31.9581 102.282 32.1547 102.184 32.3764C102.086 32.5982 102.039 32.8393 102.048 33.0816C102.031 33.291 102.059 33.5017 102.13 33.6993C102.201 33.897 102.314 34.077 102.461 34.2272C102.773 34.4903 103.174 34.6242 103.581 34.6016C104.091 34.5939 104.592 34.4703 105.047 34.24Z" fill="white"/>
<path d="M110.486 33.6512V21.2992L112.867 21.1072V33.2256C112.833 33.562 112.913 33.9 113.094 34.1856C113.186 34.2839 113.298 34.3601 113.424 34.4083C113.549 34.4566 113.684 34.4756 113.818 34.464C114.035 34.4546 114.25 34.418 114.458 34.3552L114.739 36.0704C114.471 36.1715 114.193 36.2445 113.91 36.288C113.605 36.341 113.296 36.3688 112.986 36.3712C111.319 36.3605 110.486 35.4538 110.486 33.6512Z" fill="white"/>
<path d="M116.441 33.6512V21.2992L118.825 21.1072V33.2256C118.792 33.562 118.872 33.9 119.053 34.1856C119.144 34.2839 119.257 34.3601 119.382 34.4083C119.507 34.4566 119.642 34.4756 119.776 34.464C119.993 34.4546 120.208 34.418 120.416 34.3552L120.694 36.0704C120.427 36.1716 120.151 36.2445 119.869 36.288C119.562 36.3411 119.252 36.3689 118.941 36.3712C117.277 36.3605 116.444 35.4538 116.441 33.6512Z" fill="white"/>
<path d="M130.486 31.2385H123.648C123.756 33.4294 124.8 34.5249 126.777 34.5249C127.285 34.5222 127.79 34.4621 128.285 34.3457C128.789 34.2282 129.283 34.0676 129.76 33.8657L130.285 35.5041C129.052 36.0847 127.704 36.3758 126.342 36.3553C125.366 36.3834 124.4 36.1632 123.533 35.7153C122.781 35.3093 122.178 34.675 121.811 33.9041C121.405 33.0109 121.208 32.0369 121.235 31.0561C121.208 30.0283 121.417 29.0081 121.846 28.0737C122.212 27.2806 122.803 26.6129 123.545 26.1537C124.307 25.7053 125.177 25.4771 126.061 25.4945C126.937 25.4635 127.802 25.7062 128.534 26.1889C129.195 26.6473 129.706 27.2892 130.006 28.0353C130.336 28.8479 130.499 29.7184 130.486 30.5953V31.2385ZM128.153 29.7185C128.158 29.0391 127.932 28.3781 127.513 27.8433C127.325 27.6329 127.094 27.4665 126.834 27.3559C126.575 27.2453 126.294 27.1932 126.013 27.2033C125.729 27.1974 125.447 27.2514 125.186 27.3617C124.925 27.4719 124.689 27.636 124.496 27.8433C124.044 28.369 123.768 29.0221 123.705 29.7121L128.153 29.7185Z" fill="white"/>
<path d="M132.297 28.3328C132.297 27.76 132.268 26.8832 132.217 25.7088H134.457C134.495 26 134.53 26.3488 134.569 26.7488C134.607 27.1488 134.626 27.4816 134.639 27.7344C134.88 27.3265 135.154 26.9391 135.458 26.576C135.723 26.2656 136.041 26.0064 136.399 25.8112C136.775 25.6081 137.197 25.5056 137.625 25.5136C137.949 25.5056 138.272 25.5455 138.585 25.632L138.284 27.7056C137.909 27.5971 137.516 27.5695 137.13 27.6247C136.743 27.6799 136.373 27.8165 136.044 28.0256C135.514 28.4192 135.053 28.897 134.678 29.44V36.16H132.297V28.3328Z" fill="white"/>
<path d="M139.917 40.4385C139.626 40.3913 139.338 40.3217 139.057 40.2305L139.492 38.4865C139.693 38.5406 139.897 38.5844 140.103 38.6177C140.333 38.6586 140.567 38.68 140.801 38.6817C141.867 38.6817 142.661 38.0001 143.181 36.6369L143.338 36.2497L139.482 25.7089H142.042L144.001 31.6001C144.251 32.3578 144.454 33.1305 144.609 33.9137C144.791 33.1585 145.002 32.4033 145.249 31.6481L147.201 25.7089H149.61L145.77 36.2977C145.48 37.1506 145.086 37.9642 144.596 38.7201C144.222 39.291 143.712 39.7595 143.111 40.0833C142.467 40.3976 141.757 40.5513 141.041 40.5313C140.664 40.5327 140.288 40.5017 139.917 40.4385Z" fill="white"/>
<path d="M49.9199 8.7616H54.1759L54.0575 9.792H51.1615V11.7856H53.8911V12.7456H51.1615V14.9536H54.2111L54.1055 16H49.9199V8.7616Z" fill="white"/>
<path d="M57.1168 12.3072L54.8768 8.7616H56.2976L57.8208 11.3664L59.4208 8.7616H60.8L58.56 12.2624L60.9824 16H59.5424L57.8176 13.152L56.0608 16H54.6816L57.1168 12.3072Z" fill="white"/>
<path d="M61.9004 8.7616H63.8524C64.7676 8.7616 65.4695 8.94826 65.958 9.3216C66.201 9.5128 66.3942 9.75986 66.5213 10.0418C66.6483 10.3237 66.7053 10.6321 66.6876 10.9408C66.7011 11.3817 66.5902 11.8176 66.3676 12.1984C66.1503 12.5564 65.8334 12.8433 65.4556 13.024C65.0358 13.2224 64.5758 13.321 64.1116 13.312C63.7893 13.3074 63.468 13.2742 63.1516 13.2128V16H61.9004V8.7616ZM65.0364 11.9936C65.1729 11.8625 65.2794 11.7033 65.3484 11.5271C65.4175 11.3509 65.4475 11.1618 65.4364 10.9728C65.4527 10.7917 65.4241 10.6094 65.3532 10.442C65.2824 10.2745 65.1713 10.1271 65.03 10.0128C64.6698 9.79346 64.2508 9.69065 63.83 9.7184H63.1516V12.2784C63.3894 12.3212 63.6301 12.3458 63.8716 12.352C64.2911 12.3835 64.7071 12.2555 65.0364 11.9936Z" fill="white"/>
<path d="M67.9238 8.7616H69.1718V14.9312H72.167L72.0614 16H67.9238V8.7616Z" fill="white"/>
<path d="M74.068 15.6449C73.5435 15.3497 73.1198 14.9038 72.852 14.3649C72.5609 13.7675 72.4172 13.1091 72.4328 12.4449C72.4175 11.7507 72.5712 11.0632 72.8808 10.4417C73.1646 9.88141 73.6106 9.41972 74.1608 9.11686C74.7767 8.79428 75.466 8.63768 76.1608 8.66246C76.8178 8.64482 77.4678 8.80044 78.0456 9.11366C78.5669 9.40981 78.9872 9.85575 79.252 10.3937C79.5374 10.9848 79.6788 11.635 79.6648 12.2913C79.6821 12.9932 79.5272 13.6887 79.2136 14.3169C78.9271 14.8752 78.4817 15.3361 77.9336 15.6417C77.3285 15.9636 76.6508 16.1244 75.9656 16.1089C75.3031 16.1256 74.648 15.9654 74.068 15.6449ZM77.3064 14.7585C77.6592 14.5247 77.9335 14.1902 78.0936 13.7985C78.2731 13.35 78.3613 12.8702 78.3528 12.3873C78.3608 11.9131 78.2828 11.4415 78.1224 10.9953C77.9788 10.6087 77.7224 10.2743 77.3864 10.0353C76.9967 9.79683 76.5488 9.67066 76.092 9.67066C75.6352 9.67066 75.1872 9.79683 74.7976 10.0353C74.4438 10.2807 74.1683 10.6229 74.004 11.0209C73.8219 11.4508 73.7315 11.914 73.7384 12.3809C73.7307 12.8618 73.8154 13.3398 73.988 13.7889C74.1413 14.1997 74.4216 14.5509 74.7882 14.7914C75.1548 15.032 75.5885 15.1494 76.0264 15.1265C76.4807 15.1376 76.9274 15.0092 77.3064 14.7585Z" fill="white"/>
<path d="M81.0566 8.76166H83.3222C83.986 8.71468 84.6466 8.88911 85.2007 9.25766C85.4132 9.42455 85.5824 9.64027 85.6938 9.8865C85.8052 10.1327 85.8556 10.4022 85.8407 10.6721C85.8482 11.0229 85.769 11.3703 85.6103 11.6833C85.4714 11.9577 85.2775 12.2006 85.0407 12.3969C84.8289 12.5678 84.5913 12.7039 84.3366 12.8001L86.5767 16.0001H85.1207L83.2358 13.1201H82.3174V16.0001H81.0566V8.76166ZM83.0182 12.1857C83.2962 12.1917 83.5715 12.1314 83.8214 12.0097C84.0465 11.9016 84.2363 11.7318 84.3686 11.5201C84.5007 11.2941 84.5682 11.0362 84.5639 10.7745C84.5767 10.6234 84.5519 10.4715 84.4916 10.3325C84.4313 10.1934 84.3373 10.0715 84.2182 9.97766C83.9182 9.78984 83.5666 9.70138 83.2134 9.72486H82.3078V12.1985L83.0182 12.1857Z" fill="white"/>
<path d="M87.5527 8.7616H91.8183L91.6967 9.792H88.8167V11.7856H91.5207V12.7456H88.7911V14.9536H91.8407L91.7479 16H87.5527V8.7616Z" fill="white"/>
<path d="M96.457 8.7616H97.705V16H96.457V8.7616Z" fill="white"/>
<path d="M101.011 9.8048H98.7715L98.8803 8.7616H104.512L104.397 9.8048H102.263V16H101.011V9.8048Z" fill="white"/>
<path d="M109.935 15.6447C109.412 15.3494 108.989 14.9034 108.722 14.3647C108.429 13.7682 108.284 13.1095 108.3 12.4447C108.285 11.7506 108.439 11.0631 108.748 10.4415C109.033 9.88188 109.479 9.4204 110.028 9.11674C110.639 8.79258 111.324 8.63166 112.015 8.64954C112.68 8.63164 113.337 8.79185 113.919 9.11354C114.441 9.40875 114.862 9.85496 115.126 10.3935C115.412 10.9844 115.555 11.6346 115.542 12.2911C115.559 12.9935 115.403 13.6893 115.087 14.3167C114.802 14.8757 114.356 15.3369 113.807 15.6415C113.202 15.9643 112.525 16.1252 111.839 16.1087C111.175 16.1266 110.517 15.9664 109.935 15.6447ZM113.177 14.7583C113.528 14.5235 113.801 14.1892 113.961 13.7983C114.14 13.3499 114.229 12.8701 114.22 12.3871C114.228 11.913 114.15 11.4414 113.99 10.9951C113.847 10.6089 113.592 10.2744 113.257 10.0351C112.867 9.79644 112.418 9.67012 111.961 9.67012C111.503 9.67012 111.055 9.79644 110.665 10.0351C110.311 10.2806 110.036 10.6228 109.871 11.0207C109.691 11.4512 109.6 11.914 109.606 12.3807C109.598 12.8617 109.683 13.3397 109.855 13.7887C110.008 14.1835 110.274 14.5242 110.62 14.7679C110.999 15.018 111.446 15.1433 111.9 15.1263C112.353 15.1356 112.798 15.0073 113.177 14.7583Z" fill="white"/>
<path d="M116.928 8.7616H118.361L121.942 14.3712C121.91 13.8368 121.897 13.3472 121.897 12.896V8.7616H123.056V16H121.667L118.032 10.3008C118.067 10.9408 118.086 11.52 118.086 12.0224V16H116.928V8.7616Z" fill="white"/>
<path fill-rule="evenodd" clip-rule="evenodd" d="M32.3192 8.80005H19.036C12.7736 8.80005 10.4824 11.0912 10.4824 17.3536V30.6465C10.4824 36.9088 12.7736 39.2001 19.036 39.2001H32.3192C38.5816 39.2001 40.876 36.9088 40.876 30.6465V17.3536C40.8824 11.0912 38.5912 8.80005 32.3192 8.80005Z" fill="#C8102E"/>
<path d="M16.5022 24H17.3086V27.9776H16.5022V26.3616H14.6814V27.9776H13.875V24H14.6814V25.6H16.5022V24ZM21.0462 26.2752C21.0462 26.9152 20.7262 27.2672 20.1438 27.2672C19.5614 27.2672 19.235 26.9152 19.235 26.24V24H18.4286V26.272C18.4286 27.3888 19.0494 28.0288 20.131 28.0288C21.2126 28.0288 21.8526 27.3888 21.8526 26.2368V24H21.0462V26.2752ZM30.3646 26.7328L29.4622 24H28.7998L27.9038 26.736L27.0238 24H26.1662L27.5518 27.9776H28.2206L29.1198 25.3664L30.0222 27.9776H30.6974L32.083 24H31.2446L30.3646 26.7328ZM33.5262 26.2624H34.995V25.5424H33.5262V24.7296H35.6574V24H32.7326V27.968H35.7342V27.2512H33.5262V26.2624ZM36.6942 27.968H37.491V24H36.6942V27.968ZM23.4462 27.1456L23.0846 27.9712H22.2622L23.9998 24H24.7102L26.4542 27.9712H25.6222L25.2798 27.1488L23.4462 27.1456ZM23.747 26.4288H24.9598L24.3518 25.008L23.747 26.4288Z" fill="white"/>
<path d="M25.6822 18.9408C24.3407 18.9399 23.0544 18.4066 22.1058 17.458C21.1572 16.5094 20.6239 15.2231 20.623 13.8816H21.3366C21.3366 15.0341 21.7945 16.1394 22.6094 16.9544C23.4244 17.7694 24.5297 18.2272 25.6822 18.2272C26.8348 18.2272 27.9401 17.7694 28.7551 16.9544C29.57 16.1394 30.0278 15.0341 30.0278 13.8816H30.7414C30.7406 15.2231 30.2073 16.5094 29.2587 17.458C28.3101 18.4066 27.0238 18.9399 25.6822 18.9408Z" fill="white"/>
</g>
<defs>
<clipPath id="clip0_3123_1344">
<rect width="160" height="48" fill="white"/>
</clipPath>
</defs>
</svg>
