<svg width="160" height="48" viewBox="0 0 160 48" fill="none" xmlns="http://www.w3.org/2000/svg">
<rect width="160" height="48" rx="8" fill="#0D0D0D"/>
<rect x="0.5" y="0.5" width="159" height="47" rx="7.5" stroke="white" stroke-opacity="0.25"/>
<path d="M80.754 26.1013C77.9664 26.1013 75.6944 28.2481 75.6944 31.2049C75.6944 34.1437 77.9664 36.3085 80.754 36.3085C83.5427 36.3085 85.8147 34.1437 85.8147 31.2049C85.8135 28.2481 83.5415 26.1013 80.754 26.1013ZM80.754 34.2997C79.2263 34.2997 77.9095 33.0241 77.9095 31.2061C77.9095 29.3689 79.2275 28.1125 80.754 28.1125C82.2817 28.1125 83.5984 29.3689 83.5984 31.2061C83.5984 33.0229 82.2817 34.2997 80.754 34.2997ZM69.7152 26.1013C66.9276 26.1013 64.6556 28.2481 64.6556 31.2049C64.6556 34.1437 66.9276 36.3085 69.7152 36.3085C72.5039 36.3085 74.7759 34.1437 74.7759 31.2049C74.7759 28.2481 72.5039 26.1013 69.7152 26.1013ZM69.7152 34.2997C68.1875 34.2997 66.8707 33.0241 66.8707 31.2061C66.8707 29.3689 68.1886 28.1125 69.7152 28.1125C71.2429 28.1125 72.5596 29.3689 72.5596 31.2061C72.5608 33.0229 71.2429 34.2997 69.7152 34.2997ZM56.5857 27.6685V29.8333H61.7033C61.5504 31.0513 61.1498 31.9405 60.5383 32.5585C59.794 33.3121 58.6289 34.1437 56.5857 34.1437C53.4355 34.1437 50.9727 31.5721 50.9727 28.3825C50.9727 25.1929 53.4355 22.6213 56.5857 22.6213C58.2852 22.6213 59.5261 23.2981 60.4423 24.1681L61.951 22.6405C60.671 21.4033 58.9727 20.4565 56.5857 20.4565C52.2704 20.4565 48.6426 24.0133 48.6426 28.3825C48.6426 32.7517 52.2704 36.3085 56.5857 36.3085C58.9146 36.3085 60.6722 35.5345 62.0458 34.0849C63.4586 32.6545 63.8983 30.6433 63.8983 29.0197C63.8983 28.5181 63.8604 28.0537 63.7833 27.6673H56.5857V27.6685ZM110.284 29.3497C109.865 28.2097 108.585 26.1013 105.969 26.1013C103.372 26.1013 101.214 28.1701 101.214 31.2049C101.214 34.0657 103.353 36.3085 106.217 36.3085C108.526 36.3085 109.863 34.8781 110.418 34.0465L108.699 32.8861C108.127 33.7369 107.344 34.2973 106.217 34.2973C105.091 34.2973 104.288 33.7753 103.773 32.7505L110.513 29.9281L110.284 29.3497ZM103.41 31.0513C103.353 29.0785 104.919 28.0741 106.046 28.0741C106.924 28.0741 107.668 28.5193 107.917 29.1565L103.41 31.0513ZM97.9309 36.0001H100.145V20.9989H97.9309V36.0001ZM94.3018 27.2425H94.226C93.7294 26.6425 92.7741 26.1013 91.5724 26.1013C89.0515 26.1013 86.7415 28.3441 86.7415 31.2253C86.7415 34.0861 89.0515 36.3097 91.5724 36.3097C92.7753 36.3097 93.7294 35.7685 94.226 35.1505H94.3018V35.8849C94.3018 37.8373 93.2707 38.8813 91.6103 38.8813C90.2544 38.8813 89.4141 37.8961 89.0704 37.0645L87.1421 37.8769C87.6956 39.2293 89.1652 40.8925 91.6103 40.8925C94.207 40.8925 96.4032 39.3457 96.4032 35.5753V26.4121H94.303V27.2425H94.3018ZM91.7632 34.2997C90.2355 34.2997 88.9566 33.0037 88.9566 31.2253C88.9566 29.4265 90.2355 28.1125 91.7632 28.1125C93.2707 28.1125 94.4547 29.4265 94.4547 31.2253C94.4547 33.0037 93.2707 34.2997 91.7632 34.2997ZM120.659 20.9989H115.36V36.0001H117.571V30.3169H120.658C123.109 30.3169 125.52 28.5205 125.52 25.6585C125.52 22.7965 123.11 20.9989 120.659 20.9989ZM120.716 28.2289H117.571V23.0869H120.716C122.369 23.0869 123.308 24.4729 123.308 25.6585C123.308 26.8201 122.369 28.2289 120.716 28.2289ZM134.384 26.0749C132.782 26.0749 131.124 26.7889 130.438 28.3717L132.401 29.2009C132.82 28.3717 133.603 28.1005 134.422 28.1005C135.565 28.1005 136.728 28.7953 136.747 30.0301V30.1849C136.346 29.9533 135.488 29.6065 134.44 29.6065C132.325 29.6065 130.17 30.7837 130.17 32.9833C130.17 34.9909 131.905 36.2833 133.849 36.2833C135.335 36.2833 136.155 35.6077 136.67 34.8157H136.746V35.9737H138.881V30.2221C138.883 27.5605 136.918 26.0749 134.384 26.0749ZM134.116 34.2961C133.393 34.2961 132.382 33.9289 132.382 33.0217C132.382 31.8637 133.641 31.4197 134.727 31.4197C135.698 31.4197 136.157 31.6321 136.747 31.9213C136.575 33.3121 135.393 34.2961 134.116 34.2961ZM146.659 26.4025L144.123 32.9065H144.048L141.417 26.4025H139.034L142.98 35.4925L140.73 40.5493H143.037L149.118 26.4025H146.659ZM126.74 36.0001H128.951V20.9989H126.74V36.0001Z" fill="white"/>
<path d="M56.1991 12.2916C56.1991 13.2972 55.9052 14.0976 55.3161 14.6952C54.6477 15.4056 53.7754 15.7608 52.704 15.7608C51.6776 15.7608 50.8041 15.4008 50.0871 14.6808C49.3689 13.9596 49.0098 13.0668 49.0098 12.0012C49.0098 10.9344 49.3689 10.0416 50.0871 9.32158C50.8041 8.60038 51.6776 8.24038 52.704 8.24038C53.2136 8.24038 53.7007 8.34118 54.163 8.54158C54.6264 8.74318 54.9973 9.01078 55.2747 9.34558L54.6501 9.97918C54.1795 9.40918 53.5312 9.12478 52.7028 9.12478C51.9538 9.12478 51.3067 9.39118 50.7603 9.92398C50.2139 10.4568 49.9413 11.1492 49.9413 12C49.9413 12.8508 50.2139 13.5432 50.7603 14.076C51.3067 14.6088 51.9538 14.8752 52.7028 14.8752C53.4969 14.8752 54.1594 14.6076 54.6892 14.0712C55.0329 13.722 55.232 13.236 55.2853 12.6132H52.7028V11.748H56.1481C56.1837 11.9364 56.1991 12.1176 56.1991 12.2916Z" fill="white"/>
<path d="M61.6629 9.28445H58.425V11.5668H61.3453V12.4321H58.425V14.7144H61.6629V15.6H57.5112V8.40005H61.6629V9.28445Z" fill="white"/>
<path d="M65.5158 15.6H64.602V9.28445H62.6157V8.40005H67.5022V9.28445H65.5158V15.6Z" fill="white"/>
<path d="M71.0375 15.6V8.40005H71.9513V15.6H71.0375Z" fill="white"/>
<path d="M76.0037 15.6H75.0899V9.28445H73.1035V8.40005H77.99V9.28445H76.0037V15.6Z" fill="white"/>
<path d="M87.2401 14.67C86.5409 15.3972 85.6721 15.7608 84.6327 15.7608C83.5933 15.7608 82.7246 15.3972 82.0265 14.67C81.3272 13.9428 80.9788 13.0524 80.9788 12C80.9788 10.9476 81.3272 10.0572 82.0265 9.33004C82.7246 8.60284 83.5933 8.23804 84.6327 8.23804C85.6662 8.23804 86.5338 8.60404 87.2354 9.33484C87.937 10.0656 88.2878 10.9536 88.2878 12C88.2878 13.0524 87.9382 13.9428 87.2401 14.67ZM82.7009 14.0664C83.2271 14.6064 83.8707 14.8752 84.6327 14.8752C85.3948 14.8752 86.0395 14.6052 86.5646 14.0664C87.0908 13.5264 87.3551 12.8376 87.3551 12C87.3551 11.1624 87.0908 10.4736 86.5646 9.93364C86.0395 9.39364 85.3948 9.12484 84.6327 9.12484C83.8707 9.12484 83.2271 9.39484 82.7009 9.93364C82.1758 10.4736 81.9115 11.1624 81.9115 12C81.9115 12.8376 82.1758 13.5264 82.7009 14.0664Z" fill="white"/>
<path d="M89.5702 15.6V8.40005H90.6819L94.1379 14.0004H94.1771L94.1379 12.6132V8.40005H95.0517V15.6H94.0976L90.4816 9.72725H90.4425L90.4816 11.1144V15.6H89.5702Z" fill="white"/>
<path d="M56.1991 12.2916C56.1991 13.2972 55.9052 14.0976 55.3161 14.6952C54.6477 15.4056 53.7754 15.7608 52.704 15.7608C51.6776 15.7608 50.8041 15.4008 50.0871 14.6808C49.3689 13.9596 49.0098 13.0668 49.0098 12.0012C49.0098 10.9344 49.3689 10.0416 50.0871 9.32158C50.8041 8.60038 51.6776 8.24038 52.704 8.24038C53.2136 8.24038 53.7007 8.34118 54.163 8.54158C54.6264 8.74318 54.9973 9.01078 55.2747 9.34558L54.6501 9.97918C54.1795 9.40918 53.5312 9.12478 52.7028 9.12478C51.9538 9.12478 51.3067 9.39118 50.7603 9.92398C50.2139 10.4568 49.9413 11.1492 49.9413 12C49.9413 12.8508 50.2139 13.5432 50.7603 14.076C51.3067 14.6088 51.9538 14.8752 52.7028 14.8752C53.4969 14.8752 54.1594 14.6076 54.6892 14.0712C55.0329 13.722 55.232 13.236 55.2853 12.6132H52.7028V11.748H56.1481C56.1837 11.9364 56.1991 12.1176 56.1991 12.2916Z" stroke="white" stroke-width="0.2" stroke-miterlimit="10"/>
<path d="M61.6629 9.28445H58.425V11.5668H61.3453V12.4321H58.425V14.7144H61.6629V15.6H57.5112V8.40005H61.6629V9.28445Z" stroke="white" stroke-width="0.2" stroke-miterlimit="10"/>
<path d="M65.5158 15.6H64.602V9.28445H62.6157V8.40005H67.5022V9.28445H65.5158V15.6Z" stroke="white" stroke-width="0.2" stroke-miterlimit="10"/>
<path d="M71.0375 15.6V8.40005H71.9513V15.6H71.0375Z" stroke="white" stroke-width="0.2" stroke-miterlimit="10"/>
<path d="M76.0037 15.6H75.0899V9.28445H73.1035V8.40005H77.99V9.28445H76.0037V15.6Z" stroke="white" stroke-width="0.2" stroke-miterlimit="10"/>
<path d="M87.2401 14.67C86.5409 15.3972 85.6721 15.7608 84.6327 15.7608C83.5933 15.7608 82.7246 15.3972 82.0265 14.67C81.3272 13.9428 80.9788 13.0524 80.9788 12C80.9788 10.9476 81.3272 10.0572 82.0265 9.33004C82.7246 8.60284 83.5933 8.23804 84.6327 8.23804C85.6662 8.23804 86.5338 8.60404 87.2354 9.33484C87.937 10.0656 88.2878 10.9536 88.2878 12C88.2878 13.0524 87.9382 13.9428 87.2401 14.67ZM82.7009 14.0664C83.2271 14.6064 83.8707 14.8752 84.6327 14.8752C85.3948 14.8752 86.0395 14.6052 86.5646 14.0664C87.0908 13.5264 87.3551 12.8376 87.3551 12C87.3551 11.1624 87.0908 10.4736 86.5646 9.93364C86.0395 9.39364 85.3948 9.12484 84.6327 9.12484C83.8707 9.12484 83.2271 9.39484 82.7009 9.93364C82.1758 10.4736 81.9115 11.1624 81.9115 12C81.9115 12.8376 82.1758 13.5264 82.7009 14.0664Z" stroke="white" stroke-width="0.2" stroke-miterlimit="10"/>
<path d="M89.5702 15.6V8.40005H90.6819L94.1379 14.0004H94.1771L94.1379 12.6132V8.40005H95.0517V15.6H94.0976L90.4816 9.72725H90.4425L90.4816 11.1144V15.6H89.5702Z" stroke="white" stroke-width="0.2" stroke-miterlimit="10"/>
<g filter="url(#filter0_ii_3123_1343)">
<path d="M12.3691 9.04561C12.0242 9.41521 11.8203 9.98881 11.8203 10.7316V37.2708C11.8203 38.0148 12.0242 38.5872 12.3691 38.9568L12.4568 39.0432L27.14 24.1764V24.0012V23.826L12.4568 8.95801L12.3691 9.04561Z" fill="url(#paint0_linear_3123_1343)"/>
<path d="M32.0343 29.1336L27.1406 24.1764V24.0012V23.826L32.0354 18.87L32.1457 18.9336L37.9448 22.2696C39.6005 23.2224 39.6005 24.7812 37.9448 25.7352L32.1457 29.0712L32.0343 29.1336Z" fill="url(#paint1_linear_3123_1343)"/>
<g filter="url(#filter1_i_3123_1343)">
<path d="M32.1451 29.07L27.1389 24.0012L12.3691 38.9568C12.9143 39.5424 13.8163 39.6144 14.832 39.0312L32.1451 29.07Z" fill="url(#paint2_linear_3123_1343)"/>
</g>
<path d="M32.1451 18.9324L14.832 8.97238C13.8163 8.38798 12.9143 8.46118 12.3691 9.04678L27.1401 24.0024L32.1451 18.9324Z" fill="url(#paint3_linear_3123_1343)"/>
</g>
<defs>
<filter id="filter0_ii_3123_1343" x="11.8203" y="8.56909" width="27.3672" height="30.865" filterUnits="userSpaceOnUse" color-interpolation-filters="sRGB">
<feFlood flood-opacity="0" result="BackgroundImageFix"/>
<feBlend mode="normal" in="SourceGraphic" in2="BackgroundImageFix" result="shape"/>
<feColorMatrix in="SourceAlpha" type="matrix" values="0 0 0 0 0 0 0 0 0 0 0 0 0 0 0 0 0 0 127 0" result="hardAlpha"/>
<feOffset dy="-0.15"/>
<feComposite in2="hardAlpha" operator="arithmetic" k2="-1" k3="1"/>
<feColorMatrix type="matrix" values="0 0 0 0 0 0 0 0 0 0 0 0 0 0 0 0 0 0 0.12 0"/>
<feBlend mode="normal" in2="shape" result="effect1_innerShadow_3123_1343"/>
<feColorMatrix in="SourceAlpha" type="matrix" values="0 0 0 0 0 0 0 0 0 0 0 0 0 0 0 0 0 0 127 0" result="hardAlpha"/>
<feOffset dy="0.15"/>
<feComposite in2="hardAlpha" operator="arithmetic" k2="-1" k3="1"/>
<feColorMatrix type="matrix" values="0 0 0 0 1 0 0 0 0 1 0 0 0 0 1 0 0 0 0.25 0"/>
<feBlend mode="normal" in2="effect1_innerShadow_3123_1343" result="effect2_innerShadow_3123_1343"/>
</filter>
<filter id="filter1_i_3123_1343" x="12.3691" y="24.0012" width="19.7754" height="15.4329" filterUnits="userSpaceOnUse" color-interpolation-filters="sRGB">
<feFlood flood-opacity="0" result="BackgroundImageFix"/>
<feBlend mode="normal" in="SourceGraphic" in2="BackgroundImageFix" result="shape"/>
<feColorMatrix in="SourceAlpha" type="matrix" values="0 0 0 0 0 0 0 0 0 0 0 0 0 0 0 0 0 0 127 0" result="hardAlpha"/>
<feOffset dy="-0.15"/>
<feComposite in2="hardAlpha" operator="arithmetic" k2="-1" k3="1"/>
<feColorMatrix type="matrix" values="0 0 0 0 0 0 0 0 0 0 0 0 0 0 0 0 0 0 0.08 0"/>
<feBlend mode="normal" in2="shape" result="effect1_innerShadow_3123_1343"/>
</filter>
<linearGradient id="paint0_linear_3123_1343" x1="25.8384" y1="10.4508" x2="5.7016" y2="30.3391" gradientUnits="userSpaceOnUse">
<stop stop-color="#00A0FF"/>
<stop offset="0.0066" stop-color="#00A1FF"/>
<stop offset="0.2601" stop-color="#00BEFF"/>
<stop offset="0.5122" stop-color="#00D2FF"/>
<stop offset="0.7604" stop-color="#00DFFF"/>
<stop offset="1" stop-color="#00E3FF"/>
</linearGradient>
<linearGradient id="paint1_linear_3123_1343" x1="40.1" y1="24.0012" x2="11.4234" y2="24.0012" gradientUnits="userSpaceOnUse">
<stop stop-color="#FFE000"/>
<stop offset="0.4087" stop-color="#FFBD00"/>
<stop offset="0.7754" stop-color="#FFA500"/>
<stop offset="1" stop-color="#FF9C00"/>
</linearGradient>
<linearGradient id="paint2_linear_3123_1343" x1="29.4264" y1="26.7539" x2="2.11836" y2="53.7249" gradientUnits="userSpaceOnUse">
<stop stop-color="#FF3A44"/>
<stop offset="1" stop-color="#C31162"/>
</linearGradient>
<linearGradient id="paint3_linear_3123_1343" x1="8.64932" y1="0.212142" x2="20.8431" y2="12.2554" gradientUnits="userSpaceOnUse">
<stop stop-color="#32A071"/>
<stop offset="0.0685" stop-color="#2DA771"/>
<stop offset="0.4762" stop-color="#15CF74"/>
<stop offset="0.8009" stop-color="#06E775"/>
<stop offset="1" stop-color="#00F076"/>
</linearGradient>
</defs>
</svg>
