<svg width="160" height="48" viewBox="0 0 160 48" fill="none" xmlns="http://www.w3.org/2000/svg">
<rect x="0.5" y="0.5" width="159" height="47" rx="7.5" fill="#0D0D0D"/>
<rect x="0.5" y="0.5" width="159" height="47" rx="7.5" stroke="#4A4A4A"/>
<path d="M38.75 28.4997H57.2487C57.663 28.4997 57.9987 28.8355 57.9987 29.2497C57.9987 29.6294 57.7166 29.9432 57.3505 29.9929L57.2487 29.9997H38.75C38.3358 29.9997 38 29.664 38 29.2497C38 28.87 38.2822 28.5563 38.6482 28.5066L38.75 28.4997H57.2487H38.75ZM54.2494 17.0002C55.2159 17.0002 55.9994 17.7837 55.9994 18.7502V26.2505C55.9994 27.217 55.2159 28.0005 54.2494 28.0005H41.7494C40.7829 28.0005 39.9994 27.217 39.9994 26.2505V18.7502C39.9994 17.7837 40.7829 17.0002 41.7494 17.0002H54.2494Z" fill="white"/>
<path d="M69.5011 30V21.2727H71.1318V22.6932H71.2397C71.4216 22.2121 71.7189 21.8371 72.1318 21.5682C72.5447 21.2955 73.039 21.1591 73.6147 21.1591C74.1981 21.1591 74.6867 21.2955 75.0807 21.5682C75.4784 21.8409 75.7719 22.2159 75.9613 22.6932H76.0522C76.2606 22.2273 76.592 21.8561 77.0466 21.5795C77.5011 21.2992 78.0428 21.1591 78.6716 21.1591C79.4632 21.1591 80.1091 21.4072 80.6091 21.9034C81.1129 22.3996 81.3647 23.1477 81.3647 24.1477V30H79.6659V24.3068C79.6659 23.7159 79.5049 23.2879 79.1829 23.0227C78.861 22.7576 78.4765 22.625 78.0295 22.625C77.4765 22.625 77.0466 22.7955 76.7397 23.1364C76.4329 23.4735 76.2795 23.9072 76.2795 24.4375V30H74.5863V24.1989C74.5863 23.7254 74.4386 23.3447 74.1432 23.0568C73.8477 22.7689 73.4632 22.625 72.9897 22.625C72.6678 22.625 72.3704 22.7102 72.0977 22.8807C71.8288 23.0473 71.611 23.2803 71.4443 23.5795C71.2814 23.8788 71.2 24.2254 71.2 24.6193V30H69.5011ZM86.0215 30.1932C85.4685 30.1932 84.9685 30.0909 84.5215 29.8864C84.0745 29.678 83.7204 29.3769 83.459 28.983C83.2014 28.589 83.0726 28.1061 83.0726 27.5341C83.0726 27.0417 83.1673 26.6364 83.3567 26.3182C83.5461 26 83.8018 25.7481 84.1238 25.5625C84.4457 25.3769 84.8056 25.2367 85.2033 25.142C85.6011 25.0473 86.0064 24.9754 86.4192 24.9261C86.942 24.8655 87.3662 24.8163 87.692 24.7784C88.0177 24.7367 88.2545 24.6705 88.4022 24.5795C88.5499 24.4886 88.6238 24.3409 88.6238 24.1364V24.0966C88.6238 23.6004 88.4836 23.2159 88.2033 22.9432C87.9268 22.6705 87.5139 22.5341 86.9647 22.5341C86.3927 22.5341 85.942 22.661 85.6124 22.9148C85.2867 23.1648 85.0613 23.4432 84.9363 23.75L83.3397 23.3864C83.5291 22.8561 83.8056 22.428 84.1692 22.1023C84.5367 21.7727 84.959 21.5341 85.4363 21.3864C85.9136 21.2348 86.4154 21.1591 86.942 21.1591C87.2904 21.1591 87.6598 21.2008 88.0499 21.2841C88.4439 21.3636 88.8113 21.5114 89.1522 21.7273C89.4969 21.9432 89.7791 22.2519 89.9988 22.6534C90.2185 23.0511 90.3283 23.5682 90.3283 24.2045V30H88.6692V28.8068H88.6011C88.4912 29.0265 88.3264 29.2424 88.1067 29.4545C87.887 29.6667 87.6048 29.8428 87.2601 29.983C86.9154 30.1231 86.5026 30.1932 86.0215 30.1932ZM86.3908 28.8295C86.8605 28.8295 87.262 28.7367 87.5954 28.5511C87.9325 28.3655 88.1882 28.1231 88.3624 27.8239C88.5404 27.5208 88.6295 27.197 88.6295 26.8523V25.7273C88.5689 25.7879 88.4514 25.8447 88.2772 25.8977C88.1067 25.947 87.9117 25.9905 87.692 26.0284C87.4723 26.0625 87.2582 26.0947 87.0499 26.125C86.8416 26.1515 86.6673 26.1742 86.5272 26.1932C86.1976 26.2348 85.8965 26.3049 85.6238 26.4034C85.3548 26.5019 85.1389 26.6439 84.9761 26.8295C84.817 27.0114 84.7374 27.2538 84.7374 27.5568C84.7374 27.9773 84.8927 28.2955 85.2033 28.5114C85.5139 28.7235 85.9098 28.8295 86.3908 28.8295ZM96.1072 30.1761C95.2625 30.1761 94.5353 29.9848 93.9254 29.6023C93.3194 29.2159 92.8535 28.6837 92.5277 28.0057C92.2019 27.3277 92.0391 26.5511 92.0391 25.6761C92.0391 24.7898 92.2057 24.0076 92.5391 23.3295C92.8724 22.6477 93.3421 22.1155 93.9482 21.733C94.5542 21.3504 95.2682 21.1591 96.0902 21.1591C96.7531 21.1591 97.344 21.2822 97.8629 21.5284C98.3819 21.7708 98.8004 22.1117 99.1186 22.5511C99.4406 22.9905 99.6319 23.5038 99.6925 24.0909H98.0391C97.9482 23.6818 97.7398 23.3295 97.4141 23.0341C97.0921 22.7386 96.6603 22.5909 96.1186 22.5909C95.6451 22.5909 95.2304 22.7159 94.8743 22.9659C94.522 23.2121 94.2474 23.5644 94.0504 24.0227C93.8535 24.4773 93.755 25.0152 93.755 25.6364C93.755 26.2727 93.8516 26.822 94.0447 27.2841C94.2379 27.7462 94.5107 28.1042 94.8629 28.358C95.219 28.6117 95.6375 28.7386 96.1186 28.7386C96.4406 28.7386 96.7322 28.6799 96.9936 28.5625C97.2588 28.4413 97.4804 28.2689 97.6584 28.0455C97.8402 27.822 97.9671 27.553 98.0391 27.2386H99.6925C99.6319 27.803 99.4482 28.3068 99.1413 28.75C98.8345 29.1932 98.4235 29.5417 97.9084 29.7955C97.397 30.0492 96.7966 30.1761 96.1072 30.1761ZM111.594 24.1818C111.594 25.4242 111.366 26.4924 110.912 27.3864C110.457 28.2765 109.834 28.9621 109.042 29.4432C108.255 29.9205 107.359 30.1591 106.355 30.1591C105.347 30.1591 104.448 29.9205 103.656 29.4432C102.868 28.9621 102.247 28.2746 101.792 27.3807C101.338 26.4867 101.111 25.4205 101.111 24.1818C101.111 22.9394 101.338 21.8731 101.792 20.983C102.247 20.089 102.868 19.4034 103.656 18.9261C104.448 18.4451 105.347 18.2045 106.355 18.2045C107.359 18.2045 108.255 18.4451 109.042 18.9261C109.834 19.4034 110.457 20.089 110.912 20.983C111.366 21.8731 111.594 22.9394 111.594 24.1818ZM109.855 24.1818C109.855 23.2348 109.702 22.4375 109.395 21.7898C109.092 21.1383 108.675 20.6458 108.145 20.3125C107.618 19.9754 107.022 19.8068 106.355 19.8068C105.684 19.8068 105.086 19.9754 104.559 20.3125C104.033 20.6458 103.616 21.1383 103.309 21.7898C103.006 22.4375 102.855 23.2348 102.855 24.1818C102.855 25.1288 103.006 25.928 103.309 26.5795C103.616 27.2273 104.033 27.7197 104.559 28.0568C105.086 28.3902 105.684 28.5568 106.355 28.5568C107.022 28.5568 107.618 28.3902 108.145 28.0568C108.675 27.7197 109.092 27.2273 109.395 26.5795C109.702 25.928 109.855 25.1288 109.855 24.1818ZM119.969 21.4205C119.908 20.8826 119.658 20.4659 119.219 20.1705C118.78 19.8712 118.227 19.7216 117.56 19.7216C117.083 19.7216 116.67 19.7973 116.321 19.9489C115.973 20.0966 115.702 20.3011 115.509 20.5625C115.319 20.8201 115.225 21.1136 115.225 21.4432C115.225 21.7197 115.289 21.9583 115.418 22.1591C115.551 22.3598 115.723 22.5284 115.935 22.6648C116.151 22.7973 116.382 22.9091 116.628 23C116.874 23.0871 117.111 23.1591 117.338 23.2159L118.475 23.5114C118.846 23.6023 119.227 23.7254 119.617 23.8807C120.007 24.036 120.369 24.2405 120.702 24.4943C121.035 24.7481 121.304 25.0625 121.509 25.4375C121.717 25.8125 121.821 26.2614 121.821 26.7841C121.821 27.4432 121.651 28.0284 121.31 28.5398C120.973 29.0511 120.482 29.4545 119.838 29.75C119.198 30.0455 118.424 30.1932 117.515 30.1932C116.643 30.1932 115.89 30.0549 115.253 29.7784C114.617 29.5019 114.119 29.1098 113.759 28.6023C113.399 28.0909 113.2 27.4848 113.162 26.7841H114.924C114.958 27.2045 115.094 27.5549 115.333 27.8352C115.575 28.1117 115.884 28.3182 116.259 28.4545C116.638 28.5871 117.052 28.6534 117.503 28.6534C117.999 28.6534 118.441 28.5758 118.827 28.4205C119.217 28.2614 119.524 28.0417 119.747 27.7614C119.971 27.4773 120.083 27.1458 120.083 26.767C120.083 26.4223 119.984 26.1402 119.787 25.9205C119.594 25.7008 119.331 25.5189 118.997 25.375C118.668 25.2311 118.295 25.1042 117.878 24.9943L116.503 24.6193C115.571 24.3655 114.833 23.9924 114.287 23.5C113.746 23.0076 113.475 22.3561 113.475 21.5455C113.475 20.875 113.657 20.2898 114.02 19.7898C114.384 19.2898 114.876 18.9015 115.497 18.625C116.119 18.3447 116.819 18.2045 117.6 18.2045C118.388 18.2045 119.083 18.3428 119.685 18.6193C120.291 18.8958 120.768 19.2765 121.117 19.7614C121.465 20.2424 121.647 20.7955 121.662 21.4205H119.969Z" fill="white"/>
</svg>
