<svg width="160" height="48" viewBox="0 0 160 48" fill="none" xmlns="http://www.w3.org/2000/svg">
<rect x="0.5" y="0.5" width="159" height="47" rx="7.5" fill="#0D0D0D"/>
<rect x="0.5" y="0.5" width="159" height="47" rx="7.5" stroke="#4A4A4A"/>
<path d="M29.75 28.4997H48.2487C48.663 28.4997 48.9987 28.8355 48.9987 29.2497C48.9987 29.6294 48.7166 29.9432 48.3505 29.9929L48.2487 29.9997H29.75C29.3358 29.9997 29 29.664 29 29.2497C29 28.87 29.2822 28.5563 29.6482 28.5066L29.75 28.4997H48.2487H29.75ZM45.2494 17.0002C46.2159 17.0002 46.9994 17.7837 46.9994 18.7502V26.2505C46.9994 27.217 46.2159 28.0005 45.2494 28.0005H32.7494C31.7829 28.0005 30.9994 27.217 30.9994 26.2505V18.7502C30.9994 17.7837 31.7829 17.0002 32.7494 17.0002H45.2494Z" fill="white"/>
<path d="M62.8571 30L59.6299 18.3636H61.4764L63.7435 27.375H63.8514L66.2094 18.3636H68.0389L70.3969 27.3807H70.5049L72.7662 18.3636H74.6185L71.3855 30H69.6185L67.1696 21.2841H67.0787L64.6299 30H62.8571ZM75.923 30V21.2727H77.6218V30H75.923ZM76.7809 19.9261C76.4855 19.9261 76.2317 19.8277 76.0196 19.6307C75.8112 19.4299 75.7071 19.1913 75.7071 18.9148C75.7071 18.6345 75.8112 18.3958 76.0196 18.1989C76.2317 17.9981 76.4855 17.8977 76.7809 17.8977C77.0764 17.8977 77.3283 17.9981 77.5366 18.1989C77.7487 18.3958 77.8548 18.6345 77.8548 18.9148C77.8548 19.1913 77.7487 19.4299 77.5366 19.6307C77.3283 19.8277 77.0764 19.9261 76.7809 19.9261ZM81.4462 24.8182V30H79.7474V21.2727H81.378V22.6932H81.486C81.6868 22.2311 82.0011 21.8598 82.4292 21.5795C82.861 21.2992 83.4046 21.1591 84.0599 21.1591C84.6546 21.1591 85.1754 21.2841 85.6224 21.5341C86.0693 21.7803 86.4159 22.1477 86.6621 22.6364C86.9083 23.125 87.0314 23.7292 87.0314 24.4489V30H85.3326V24.6534C85.3326 24.0208 85.1678 23.5265 84.8383 23.1705C84.5087 22.8106 84.0561 22.6307 83.4803 22.6307C83.0864 22.6307 82.736 22.7159 82.4292 22.8864C82.1261 23.0568 81.8856 23.3068 81.7076 23.6364C81.5333 23.9621 81.4462 24.3561 81.4462 24.8182ZM92.4169 30.1705C91.7124 30.1705 91.0836 29.9905 90.5305 29.6307C89.9813 29.267 89.5495 28.75 89.2351 28.0795C88.9245 27.4053 88.7692 26.5966 88.7692 25.6534C88.7692 24.7102 88.9264 23.9034 89.2408 23.233C89.5589 22.5625 89.9946 22.0492 90.5476 21.6932C91.1006 21.3371 91.7275 21.1591 92.4283 21.1591C92.9699 21.1591 93.4055 21.25 93.7351 21.4318C94.0684 21.6098 94.326 21.8182 94.5078 22.0568C94.6934 22.2955 94.8374 22.5057 94.9396 22.6875H95.0419V18.3636H96.7408V30H95.0817V28.642H94.9396C94.8374 28.8277 94.6896 29.0398 94.4964 29.2784C94.3071 29.517 94.0457 29.7254 93.7124 29.9034C93.379 30.0814 92.9472 30.1705 92.4169 30.1705ZM92.7919 28.7216C93.2805 28.7216 93.6934 28.5928 94.0305 28.3352C94.3714 28.0739 94.629 27.7121 94.8033 27.25C94.9813 26.7879 95.0703 26.25 95.0703 25.6364C95.0703 25.0303 94.9832 24.5 94.8089 24.0455C94.6347 23.5909 94.379 23.2367 94.0419 22.983C93.7048 22.7292 93.2881 22.6023 92.7919 22.6023C92.2805 22.6023 91.8544 22.7348 91.5135 23C91.1726 23.2652 90.915 23.6269 90.7408 24.0852C90.5703 24.5436 90.4851 25.0606 90.4851 25.6364C90.4851 26.2197 90.5722 26.7443 90.7464 27.2102C90.9207 27.6761 91.1783 28.0455 91.5192 28.3182C91.8639 28.5871 92.2881 28.7216 92.7919 28.7216ZM102.682 30.1761C101.863 30.1761 101.149 29.9886 100.54 29.6136C99.9297 29.2386 99.4562 28.714 99.1191 28.0398C98.782 27.3655 98.6134 26.5777 98.6134 25.6761C98.6134 24.7708 98.782 23.9792 99.1191 23.3011C99.4562 22.6231 99.9297 22.0966 100.54 21.7216C101.149 21.3466 101.863 21.1591 102.682 21.1591C103.5 21.1591 104.214 21.3466 104.824 21.7216C105.434 22.0966 105.907 22.6231 106.244 23.3011C106.581 23.9792 106.75 24.7708 106.75 25.6761C106.75 26.5777 106.581 27.3655 106.244 28.0398C105.907 28.714 105.434 29.2386 104.824 29.6136C104.214 29.9886 103.5 30.1761 102.682 30.1761ZM102.687 28.75C103.218 28.75 103.657 28.6098 104.005 28.3295C104.354 28.0492 104.612 27.6761 104.778 27.2102C104.949 26.7443 105.034 26.2311 105.034 25.6705C105.034 25.1136 104.949 24.6023 104.778 24.1364C104.612 23.6667 104.354 23.2898 104.005 23.0057C103.657 22.7216 103.218 22.5795 102.687 22.5795C102.153 22.5795 101.71 22.7216 101.358 23.0057C101.009 23.2898 100.75 23.6667 100.579 24.1364C100.413 24.6023 100.329 25.1136 100.329 25.6705C100.329 26.2311 100.413 26.7443 100.579 27.2102C100.75 27.6761 101.009 28.0492 101.358 28.3295C101.71 28.6098 102.153 28.75 102.687 28.75ZM110.113 30L107.544 21.2727H109.3L111.01 27.6818H111.095L112.811 21.2727H114.567L116.272 27.6534H116.357L118.056 21.2727H119.811L117.249 30H115.516L113.743 23.6989H113.613L111.84 30H110.113ZM127.803 23.4034L126.264 23.6761C126.199 23.4792 126.097 23.2917 125.957 23.1136C125.82 22.9356 125.635 22.7898 125.4 22.6761C125.165 22.5625 124.872 22.5057 124.519 22.5057C124.038 22.5057 123.637 22.6136 123.315 22.8295C122.993 23.0417 122.832 23.3163 122.832 23.6534C122.832 23.9451 122.94 24.1799 123.156 24.358C123.372 24.536 123.72 24.6818 124.201 24.7955L125.587 25.1136C126.391 25.2992 126.989 25.5852 127.383 25.9716C127.777 26.358 127.974 26.8598 127.974 27.4773C127.974 28 127.822 28.4659 127.519 28.875C127.22 29.2803 126.801 29.5985 126.264 29.8295C125.73 30.0606 125.11 30.1761 124.406 30.1761C123.428 30.1761 122.631 29.9678 122.014 29.5511C121.396 29.1307 121.017 28.5341 120.877 27.7614L122.519 27.5114C122.622 27.9394 122.832 28.2633 123.15 28.483C123.468 28.6989 123.883 28.8068 124.394 28.8068C124.951 28.8068 125.396 28.6913 125.73 28.4602C126.063 28.2254 126.23 27.9394 126.23 27.6023C126.23 27.3295 126.127 27.1004 125.923 26.9148C125.722 26.7292 125.413 26.589 124.997 26.4943L123.519 26.1705C122.705 25.9848 122.103 25.6894 121.712 25.2841C121.326 24.8788 121.133 24.3655 121.133 23.7443C121.133 23.2292 121.277 22.7784 121.565 22.392C121.853 22.0057 122.25 21.7045 122.758 21.4886C123.266 21.2689 123.847 21.1591 124.502 21.1591C125.445 21.1591 126.188 21.3636 126.73 21.7727C127.271 22.178 127.629 22.7216 127.803 23.4034Z" fill="white"/>
</svg>
