<svg width="56" height="56" viewBox="0 0 56 56" fill="none" xmlns="http://www.w3.org/2000/svg">
<g filter="url(#filter0_i_3056_98343)">
<g clip-path="url(#clip0_3056_98343)">
<rect width="56" height="56" rx="8" fill="url(#paint0_linear_3056_98343)"/>
<path fill-rule="evenodd" clip-rule="evenodd" d="M13.8 42.2V56H14.2V42.2H27.8V56H28.2V42.2H41.8V56H42.2V42.2H56V41.8H42.2V28.2H56V27.8H42.2V14.2H56V13.8H42.2V0H41.8V13.8H28.2V0H27.8V13.8H14.2V0H13.8V13.8H0V14.2H13.8V27.8H0V28.2H13.8V41.8H0V42.2H13.8ZM14.2 41.8H27.8V28.2H14.2V41.8ZM28.2 41.8H41.8V28.2H28.2V41.8ZM41.8 14.2V27.8H28.2V14.2H41.8ZM14.2 27.8H27.8V14.2H14.2V27.8Z" fill="url(#paint1_linear_3056_98343)"/>
<circle cx="48.2996" cy="17.5" r="0.7" fill="white"/>
<circle cx="34.2996" cy="10.5" r="0.7" fill="white"/>
<circle cx="15.4" cy="15.4" r="1.4" fill="url(#paint2_linear_3056_98343)"/>
<path d="M35.9217 14.5235C36.2386 13.6671 36.3971 13.2387 36.62 13.1052C36.854 12.9649 37.1461 12.9649 37.38 13.1052C37.6029 13.2387 37.7614 13.6671 38.0784 14.5235C38.3999 15.3925 38.5609 15.8275 38.8099 16.1963C39.0746 16.588 39.4119 16.9255 39.8037 17.19C40.1717 17.4388 40.6052 17.5994 41.4707 17.9194L41.4758 17.9215C42.3327 18.2386 42.7612 18.3971 42.8949 18.62C43.0351 18.8538 43.0351 19.1462 42.8949 19.38C42.7612 19.6029 42.3328 19.7614 41.4759 20.0785L41.4706 20.0806C40.6051 20.4006 40.1717 20.5612 39.8037 20.81C39.4119 21.0745 39.0746 21.412 38.8099 21.8037C38.5609 22.1725 38.4001 22.6069 38.0786 23.4759C37.7616 24.3323 37.6029 24.7613 37.38 24.8948C37.1461 25.0351 36.854 25.0351 36.62 24.8948C36.3971 24.7613 36.2386 24.3329 35.9217 23.4765C35.6001 22.6074 35.4391 22.1725 35.1901 21.8037C34.9255 21.412 34.5881 21.0745 34.1963 20.81C33.8283 20.5612 33.3949 20.4006 32.5293 20.0806L32.5242 20.0785C31.6673 19.7614 31.2388 19.6029 31.1052 19.38C30.9649 19.1462 30.9649 18.8538 31.1052 18.62C31.2388 18.3971 31.6672 18.2386 32.5241 17.9215L32.5294 17.9194C33.3949 17.5994 33.8284 17.4388 34.1963 17.19C34.5881 16.9255 34.9255 16.588 35.1901 16.1963C35.4391 15.8275 35.6001 15.3926 35.9217 14.5235Z" fill="white"/>
<path d="M16.6191 17.9309C16.4065 17.3564 15.5937 17.3564 15.381 17.9309C15.0467 18.8344 14.3344 19.5466 13.431 19.8809C12.8563 20.0936 12.8563 20.9064 13.431 21.1191C14.3344 21.4534 15.0467 22.1656 15.381 23.0691C15.5937 23.6436 16.4065 23.6436 16.6191 23.0691C16.9534 22.1656 17.6657 21.4534 18.5691 21.1191C19.1438 20.9064 19.1438 20.0936 18.5691 19.8809C17.6657 19.5466 16.9534 18.8344 16.6191 17.9309Z" fill="white"/>
<path d="M25.8202 19.3397C25.7458 19.4389 25.6683 19.6483 25.5133 20.0675C25.0078 21.4333 24.7549 22.1169 24.4471 22.7429C23.1213 25.4396 20.9396 27.6214 18.2429 28.9471C17.6204 29.2531 16.9415 29.5046 15.5908 30.0049L15.5731 30.0114L15.5674 30.0133C15.1484 30.1683 14.9389 30.2459 14.8398 30.3202C14.3867 30.6601 14.3867 31.3399 14.8398 31.6798C14.8964 31.7223 14.9891 31.7659 15.1364 31.8244C15.2436 31.867 15.3798 31.9173 15.552 31.981L15.5674 31.9867L15.5731 31.9886L15.5909 31.9952C16.9415 32.4954 17.6204 32.7469 18.2429 33.0529C20.9396 34.3786 23.1213 36.5604 24.4471 39.2571C24.7549 39.8831 25.0076 40.5661 25.513 41.9319C25.6681 42.351 25.7458 42.5611 25.8202 42.6603C26.1601 43.1132 26.8398 43.1132 27.1798 42.6603C27.2542 42.5611 27.3317 42.3517 27.4867 41.9325C27.9921 40.5668 28.2451 39.8831 28.5529 39.2571C29.8787 36.5604 32.0603 34.3786 34.7571 33.0529C35.3796 32.7469 36.0585 32.4954 37.409 31.9952L37.4268 31.9886L37.4326 31.9867C37.8516 31.8317 38.0611 31.7541 38.1602 31.6798C38.6133 31.3399 38.6133 30.6601 38.1602 30.3202C38.0611 30.2459 37.8516 30.1683 37.4326 30.0133L37.4268 30.0114L37.4091 30.0049C36.0585 29.5046 35.3796 29.2531 34.7571 28.9471C32.0603 27.6214 29.8787 25.4396 28.5529 22.7429C28.2451 22.1169 27.9924 21.434 27.487 20.0682C27.332 19.6491 27.2542 19.4389 27.1798 19.3397C26.8398 18.8868 26.1601 18.8868 25.8202 19.3397Z" fill="white"/>
</g>
</g>
<defs>
<filter id="filter0_i_3056_98343" x="0" y="0" width="56" height="58" filterUnits="userSpaceOnUse" color-interpolation-filters="sRGB">
<feFlood flood-opacity="0" result="BackgroundImageFix"/>
<feBlend mode="normal" in="SourceGraphic" in2="BackgroundImageFix" result="shape"/>
<feColorMatrix in="SourceAlpha" type="matrix" values="0 0 0 0 0 0 0 0 0 0 0 0 0 0 0 0 0 0 127 0" result="hardAlpha"/>
<feOffset dy="2"/>
<feGaussianBlur stdDeviation="1"/>
<feComposite in2="hardAlpha" operator="arithmetic" k2="-1" k3="1"/>
<feColorMatrix type="matrix" values="0 0 0 0 1 0 0 0 0 1 0 0 0 0 1 0 0 0 0.25 0"/>
<feBlend mode="lighten" in2="shape" result="effect1_innerShadow_3056_98343"/>
</filter>
<linearGradient id="paint0_linear_3056_98343" x1="28" y1="0" x2="28" y2="56" gradientUnits="userSpaceOnUse">
<stop stop-color="#4DFF5F"/>
<stop offset="1" stop-color="#11B822"/>
</linearGradient>
<linearGradient id="paint1_linear_3056_98343" x1="28" y1="0" x2="28" y2="56" gradientUnits="userSpaceOnUse">
<stop stop-color="white" stop-opacity="0.3"/>
<stop offset="1" stop-color="white" stop-opacity="0"/>
</linearGradient>
<linearGradient id="paint2_linear_3056_98343" x1="15.4" y1="14" x2="15.4" y2="16.8" gradientUnits="userSpaceOnUse">
<stop stop-color="white"/>
<stop offset="1" stop-color="white" stop-opacity="0.6"/>
</linearGradient>
<clipPath id="clip0_3056_98343">
<rect width="56" height="56" rx="8" fill="white"/>
</clipPath>
</defs>
</svg>
