<svg width="56" height="56" viewBox="0 0 56 56" fill="none" xmlns="http://www.w3.org/2000/svg">
<g filter="url(#filter0_i_3056_98376)">
<g clip-path="url(#clip0_3056_98376)">
<rect width="56" height="56" rx="8" fill="url(#paint0_linear_3056_98376)"/>
<path fill-rule="evenodd" clip-rule="evenodd" d="M13.8 42.2V56H14.2V42.2H27.8V56H28.2V42.2H41.8V56H42.2V42.2H56V41.8H42.2V28.2H56V27.8H42.2V14.2H56V13.8H42.2V0H41.8V13.8H28.2V0H27.8V13.8H14.2V0H13.8V13.8H0V14.2H13.8V27.8H0V28.2H13.8V41.8H0V42.2H13.8ZM14.2 41.8H27.8V28.2H14.2V41.8ZM28.2 41.8H41.8V28.2H28.2V41.8ZM41.8 14.2V27.8H28.2V14.2H41.8ZM14.2 27.8H27.8V14.2H14.2V27.8Z" fill="url(#paint1_linear_3056_98376)"/>
<circle cx="48.2996" cy="17.5" r="0.7" fill="white"/>
<circle cx="34.2996" cy="10.5" r="0.7" fill="white"/>
<circle cx="15.4" cy="15.4" r="1.4" fill="url(#paint2_linear_3056_98376)"/>
<path d="M28 13C31.3137 13 34 15.6863 34 19V22H37.75C38.9926 22 40 23.0074 40 24.25V40.75C40 41.9926 38.9926 43 37.75 43H18.25C17.0074 43 16 41.9926 16 40.75V24.25C16 23.0074 17.0074 22 18.25 22H22V19C22 15.6863 24.6863 13 28 13ZM28.0002 30.25C26.7575 30.25 25.7502 31.2574 25.7502 32.5C25.7502 33.7426 26.7575 34.75 28.0002 34.75C29.2428 34.75 30.2502 33.7426 30.2502 32.5C30.2502 31.2574 29.2428 30.25 28.0002 30.25ZM28 16C26.3431 16 25 17.3431 25 19V22H31V19C31 17.3431 29.6569 16 28 16Z" fill="white"/>
</g>
</g>
<defs>
<filter id="filter0_i_3056_98376" x="0" y="0" width="56" height="58" filterUnits="userSpaceOnUse" color-interpolation-filters="sRGB">
<feFlood flood-opacity="0" result="BackgroundImageFix"/>
<feBlend mode="normal" in="SourceGraphic" in2="BackgroundImageFix" result="shape"/>
<feColorMatrix in="SourceAlpha" type="matrix" values="0 0 0 0 0 0 0 0 0 0 0 0 0 0 0 0 0 0 127 0" result="hardAlpha"/>
<feOffset dy="2"/>
<feGaussianBlur stdDeviation="1"/>
<feComposite in2="hardAlpha" operator="arithmetic" k2="-1" k3="1"/>
<feColorMatrix type="matrix" values="0 0 0 0 1 0 0 0 0 1 0 0 0 0 1 0 0 0 0.25 0"/>
<feBlend mode="lighten" in2="shape" result="effect1_innerShadow_3056_98376"/>
</filter>
<linearGradient id="paint0_linear_3056_98376" x1="28" y1="0" x2="28" y2="56" gradientUnits="userSpaceOnUse">
<stop stop-color="#9C5FFF"/>
<stop offset="1" stop-color="#5316B7"/>
</linearGradient>
<linearGradient id="paint1_linear_3056_98376" x1="28" y1="0" x2="28" y2="56" gradientUnits="userSpaceOnUse">
<stop stop-color="white" stop-opacity="0.3"/>
<stop offset="1" stop-color="white" stop-opacity="0"/>
</linearGradient>
<linearGradient id="paint2_linear_3056_98376" x1="15.4" y1="14" x2="15.4" y2="16.8" gradientUnits="userSpaceOnUse">
<stop stop-color="white"/>
<stop offset="1" stop-color="white" stop-opacity="0.6"/>
</linearGradient>
<clipPath id="clip0_3056_98376">
<rect width="56" height="56" rx="8" fill="white"/>
</clipPath>
</defs>
</svg>
