<svg width="56" height="56" viewBox="0 0 56 56" fill="none" xmlns="http://www.w3.org/2000/svg">
<g filter="url(#filter0_i_3056_98392)">
<g clip-path="url(#clip0_3056_98392)">
<rect width="56" height="56" rx="8" fill="url(#paint0_linear_3056_98392)"/>
<path fill-rule="evenodd" clip-rule="evenodd" d="M13.8 42.2V56H14.2V42.2H27.8V56H28.2V42.2H41.8V56H42.2V42.2H56V41.8H42.2V28.2H56V27.8H42.2V14.2H56V13.8H42.2V0H41.8V13.8H28.2V0H27.8V13.8H14.2V0H13.8V13.8H0V14.2H13.8V27.8H0V28.2H13.8V41.8H0V42.2H13.8ZM14.2 41.8H27.8V28.2H14.2V41.8ZM28.2 41.8H41.8V28.2H28.2V41.8ZM41.8 14.2V27.8H28.2V14.2H41.8ZM14.2 27.8H27.8V14.2H14.2V27.8Z" fill="url(#paint1_linear_3056_98392)"/>
<circle cx="48.2996" cy="17.5" r="0.7" fill="white"/>
<circle cx="34.2996" cy="10.5" r="0.7" fill="white"/>
<circle cx="15.4" cy="15.4" r="1.4" fill="url(#paint2_linear_3056_98392)"/>
<path d="M28 13C36.2845 13 43 19.717 43 28C43 36.283 36.2845 43 28 43C19.7155 43 13 36.283 13 28C13 19.717 19.7155 13 28 13ZM28.0027 32.5056C27.1754 32.5056 26.5047 33.1763 26.5047 34.0036C26.5047 34.8309 27.1754 35.5016 28.0027 35.5016C28.83 35.5016 29.5007 34.8309 29.5007 34.0036C29.5007 33.1763 28.83 32.5056 28.0027 32.5056ZM27.9995 20.5C27.2302 20.5003 26.5964 21.0796 26.51 21.8256L26.5 22.0005L26.5027 29.5019L26.5129 29.6768C26.5998 30.4228 27.234 31.0016 28.0032 31.0013C28.7725 31.001 29.4063 30.4218 29.4927 29.6757L29.5027 29.5008L29.5 21.9995L29.4898 21.8245C29.4029 21.0786 28.7687 20.4997 27.9995 20.5Z" fill="white"/>
</g>
</g>
<defs>
<filter id="filter0_i_3056_98392" x="0" y="0" width="56" height="58" filterUnits="userSpaceOnUse" color-interpolation-filters="sRGB">
<feFlood flood-opacity="0" result="BackgroundImageFix"/>
<feBlend mode="normal" in="SourceGraphic" in2="BackgroundImageFix" result="shape"/>
<feColorMatrix in="SourceAlpha" type="matrix" values="0 0 0 0 0 0 0 0 0 0 0 0 0 0 0 0 0 0 127 0" result="hardAlpha"/>
<feOffset dy="2"/>
<feGaussianBlur stdDeviation="1"/>
<feComposite in2="hardAlpha" operator="arithmetic" k2="-1" k3="1"/>
<feColorMatrix type="matrix" values="0 0 0 0 1 0 0 0 0 1 0 0 0 0 1 0 0 0 0.25 0"/>
<feBlend mode="lighten" in2="shape" result="effect1_innerShadow_3056_98392"/>
</filter>
<linearGradient id="paint0_linear_3056_98392" x1="28" y1="0" x2="28" y2="56" gradientUnits="userSpaceOnUse">
<stop stop-color="#FFC75B"/>
<stop offset="1" stop-color="#F99312"/>
</linearGradient>
<linearGradient id="paint1_linear_3056_98392" x1="28" y1="0" x2="28" y2="56" gradientUnits="userSpaceOnUse">
<stop stop-color="white" stop-opacity="0.3"/>
<stop offset="1" stop-color="white" stop-opacity="0"/>
</linearGradient>
<linearGradient id="paint2_linear_3056_98392" x1="15.4" y1="14" x2="15.4" y2="16.8" gradientUnits="userSpaceOnUse">
<stop stop-color="white"/>
<stop offset="1" stop-color="white" stop-opacity="0.6"/>
</linearGradient>
<clipPath id="clip0_3056_98392">
<rect width="56" height="56" rx="8" fill="white"/>
</clipPath>
</defs>
</svg>
