<svg width="56" height="56" viewBox="0 0 56 56" fill="none" xmlns="http://www.w3.org/2000/svg">
<g filter="url(#filter0_i_3056_98359)">
<g clip-path="url(#clip0_3056_98359)">
<rect width="56" height="56" rx="8" fill="url(#paint0_linear_3056_98359)"/>
<path fill-rule="evenodd" clip-rule="evenodd" d="M13.8 42.2V56H14.2V42.2H27.8V56H28.2V42.2H41.8V56H42.2V42.2H56V41.8H42.2V28.2H56V27.8H42.2V14.2H56V13.8H42.2V0H41.8V13.8H28.2V0H27.8V13.8H14.2V0H13.8V13.8H0V14.2H13.8V27.8H0V28.2H13.8V41.8H0V42.2H13.8ZM14.2 41.8H27.8V28.2H14.2V41.8ZM28.2 41.8H41.8V28.2H28.2V41.8ZM41.8 14.2V27.8H28.2V14.2H41.8ZM14.2 27.8H27.8V14.2H14.2V27.8Z" fill="url(#paint1_linear_3056_98359)"/>
<circle cx="48.2996" cy="17.5" r="0.7" fill="white"/>
<circle cx="34.2996" cy="10.5" r="0.7" fill="white"/>
<circle cx="15.4" cy="15.4" r="1.4" fill="url(#paint2_linear_3056_98359)"/>
<path d="M36.2505 27.9999C40.8069 27.9999 44.5005 31.6936 44.5005 36.2499C44.5005 40.8062 40.8069 44.4999 36.2505 44.4999C31.6942 44.4999 28.0005 40.8062 28.0005 36.2499C28.0005 31.6936 31.6942 27.9999 36.2505 27.9999ZM28.0339 30.9989C27.0633 32.5145 26.5005 34.3165 26.5005 36.2499C26.5005 38.6954 27.4009 40.9306 28.8882 42.6421C27.6949 42.8823 26.3975 43.0015 25.0005 43.0015C19.8691 43.0015 16.0847 41.3933 13.7714 38.1468C13.2735 37.4479 13.0059 36.6112 13.0059 35.7531V34.3731C13.0059 32.5101 14.5161 30.9998 16.3792 30.9998L28.0339 30.9989ZM32.2809 35.7196C31.988 35.4267 31.5131 35.4267 31.2202 35.7196C30.9273 36.0125 30.9273 36.4873 31.2202 36.7802L34.2202 39.7802C34.5131 40.0731 34.988 40.0731 35.2809 39.7802L41.2809 33.7802C41.5738 33.4873 41.5738 33.0125 41.2809 32.7196C40.988 32.4267 40.5131 32.4267 40.2202 32.7196L34.7505 38.1892L32.2809 35.7196ZM25.0005 13.0068C29.1427 13.0068 32.5005 16.3647 32.5005 20.5068C32.5005 24.649 29.1427 28.0068 25.0005 28.0068C20.8584 28.0068 17.5005 24.649 17.5005 20.5068C17.5005 16.3647 20.8584 13.0068 25.0005 13.0068Z" fill="white"/>
</g>
</g>
<defs>
<filter id="filter0_i_3056_98359" x="0" y="0" width="56" height="58" filterUnits="userSpaceOnUse" color-interpolation-filters="sRGB">
<feFlood flood-opacity="0" result="BackgroundImageFix"/>
<feBlend mode="normal" in="SourceGraphic" in2="BackgroundImageFix" result="shape"/>
<feColorMatrix in="SourceAlpha" type="matrix" values="0 0 0 0 0 0 0 0 0 0 0 0 0 0 0 0 0 0 127 0" result="hardAlpha"/>
<feOffset dy="2"/>
<feGaussianBlur stdDeviation="1"/>
<feComposite in2="hardAlpha" operator="arithmetic" k2="-1" k3="1"/>
<feColorMatrix type="matrix" values="0 0 0 0 1 0 0 0 0 1 0 0 0 0 1 0 0 0 0.25 0"/>
<feBlend mode="lighten" in2="shape" result="effect1_innerShadow_3056_98359"/>
</filter>
<linearGradient id="paint0_linear_3056_98359" x1="28" y1="0" x2="28" y2="56" gradientUnits="userSpaceOnUse">
<stop stop-color="#38F1A3"/>
<stop offset="1" stop-color="#11A869"/>
</linearGradient>
<linearGradient id="paint1_linear_3056_98359" x1="28" y1="0" x2="28" y2="56" gradientUnits="userSpaceOnUse">
<stop stop-color="white" stop-opacity="0.3"/>
<stop offset="1" stop-color="white" stop-opacity="0"/>
</linearGradient>
<linearGradient id="paint2_linear_3056_98359" x1="15.4" y1="14" x2="15.4" y2="16.8" gradientUnits="userSpaceOnUse">
<stop stop-color="white"/>
<stop offset="1" stop-color="white" stop-opacity="0.6"/>
</linearGradient>
<clipPath id="clip0_3056_98359">
<rect width="56" height="56" rx="8" fill="white"/>
</clipPath>
</defs>
</svg>
